PathFileType	4	(X/Y/Z)	RBDS019\RBDS019runT35.trc
DataRate	CameraRate	NumFrames	NumMarkers	Units	OrigDataRate	OrigDataStartFrame	OrigNumFrames
150.000000	150.000000	5	33	mm	150.000000	1687	4500
Frame#	Time	L.ASIS			L.Heel.Bottom			L.Heel.Lateral			L.Heel.Top			L.Iliac.Crest			L.MT1			L.MT5			L.PSIS			L.Shank.Bottom.Lateral			L.Shank.Bottom.Medial			L.Shank.Top.Lateral			L.Shank.Top.Medial			L.Thigh.Bottom.Lateral			L.Thigh.Bottom.Medial			L.Thigh.Top.Lateral			L.Thigh.Top.Medial			R.ASIS			R.ASY			R.Heel.Bottom			R.Heel.Lateral			R.Heel.Top			R.Iliac.Crest			R.MT1			R.MT5			R.PSIS			R.Shank.Bottom.Lateral			R.Shank.Bottom.Medial			R.Shank.Top.Lateral			R.Shank.Top.Medial			R.Thigh.Bottom.Lateral			R.Thigh.Bottom.Medial			R.Thigh.Top.Lateral			R.Thigh.Top.Medial			
		X1	Y1	Z1	X2	Y2	Z2	X3	Y3	Z3	X4	Y4	Z4	X5	Y5	Z5	X6	Y6	Z6	X7	Y7	Z7	X8	Y8	Z8	X9	Y9	Z9	X10	Y10	Z10	X11	Y11	Z11	X12	Y12	Z12	X13	Y13	Z13	X14	Y14	Z14	X15	Y15	Z15	X16	Y16	Z16	X17	Y17	Z17	X18	Y18	Z18	X19	Y19	Z19	X20	Y20	Z20	X21	Y21	Z21	X22	Y22	Z22	X23	Y23	Z23	X24	Y24	Z24	X25	Y25	Z25	X26	Y26	Z26	X27	Y27	Z27	X28	Y28	Z28	X29	Y29	Z29	X30	Y30	Z30	X31	Y31	Z31	X32	Y32	Z32	X33	Y33	Z33	

1688	11.24666666666667	2323.986103002737	916.0256620272513	935.0711804501165	2009.289455950834	42.143588648185	1009.757159414372	2041.741810597698	58.78420209600314	967.2936937623108	2023.438882332852	88.50963966825307	1011.155399006562	2256.703337485645	962.1694741419896	899.6035178792615	2210.868456699504	43.12551757901313	1051.370915774464	2181.718358075123	37.78183660271899	945.2335179484535	2156.35116981489	932.7373127987801	1008.444480601945	2129.702254457674	157.1817828347965	950.7072117826478	2093.454221604312	179.5814509292689	979.059746710775	2159.700475018237	228.7824477785375	926.8645209463936	2126.391361212224	254.8709947761657	959.212058966202	2277.689753802095	539.2954407147042	885.7364372426382	2214.700495832434	533.0141678860365	922.6441940183064	2256.244703376038	645.8113579347078	869.3132736180797	2197.41173968772	640.2612515478741	906.8561750359822	2327.435729210704	892.3075439816654	1172.39515336986	-7398528859.737162	4889383468.292661	-13757633536.41748	2008.691815526653	526.8207155077519	1094.598384799335	2027.7573747419	499.1457480307844	1132.758341751739	2053.348808341895	520.414911618254	1091.760774530067	2268.016354949478	951.8900078382907	1199.120160263416	2041.726630364563	333.6820793297183	1046.844221563743	2028.978254094812	354.0354451534894	1152.674051526262	2163.717257380947	928.7500419259455	1106.194598486518	2143.514186808618	460.3688241719965	1145.093169363068	2143.519220739355	505.0779343874359	1112.379932858028	2221.536194246993	475.2673585358805	1162.587308915514	2221.047168452599	516.9129880568175	1128.481429568904	2413.044279431743	536.3724819082612	1191.36589609811	2364.651241990269	514.1026644544689	1146.285162600511	2350.650638373002	625.0980699672073	1212.214060628817	2301.039925520974	597.9372165286386	1172.555635418239	
1689	11.25333333333333	2325.019944851259	917.3355670944009	935.3108077464301	1986.189544898184	46.94807990278263	1009.900067486141	2019.080311748211	62.43194322576974	967.3501761207389	2001.384202005911	92.94289873316019	1010.912951007989	2259.33480289066	964.9378903197327	898.9249617370276	2187.149949045453	42.56817972542832	1051.405690055226	2157.828366533988	37.68933784412539	945.4559484873614	2157.120779062334	936.3498990495934	1006.17443678137	2107.974936024542	160.7608238905553	950.9077724320907	2072.200101188	183.5468707862117	979.5453626989865	2139.00540619932	232.0241122558991	927.2963284539417	2106.255343658392	258.4296037438091	959.9320996144315	2265.464787531626	541.1101881429327	886.6920185083818	2201.863533848586	537.3573678095287	922.8736160104395	2248.418058428817	648.4174695538728	870.085342406613	2189.106089771262	645.2965540410663	907.0983170371771	2326.950839400935	897.5715982282361	1172.644648589934	-7416008778.755668	4900934103.132356	-13790135872.25244	2016.814680830331	510.8853944940257	1095.620832174038	2037.843064333159	484.7128790870181	1133.813170046772	2061.744750279638	507.6001338354352	1092.615585495698	2267.458270144245	956.9113963976104	1198.586454912225	2062.734298920351	320.3753189911225	1048.32934355149	2049.004548488041	340.135915880503	1154.008402558791	2163.627483504699	933.1662520471162	1104.588552078024	2155.745844372629	452.6392029845316	1145.594902572263	2152.857665371287	497.7789744429982	1113.639874531072	2232.643373960236	472.290254390284	1163.200737349203	2229.451203494542	514.3718803736633	1129.806884902777	2423.647786307337	546.7722523319958	1191.372503508024	2375.6476799853	522.0413193444249	1146.383793280915	2358.145365121706	633.1302489211176	1212.211112871645	2309.165317530502	603.9896529341979	1172.840622645876	
1690	11.26	2326.325979432765	918.9522170231456	935.4128215301558	1963.568980057466	52.79628538346367	1009.890044164226	1996.961942985181	66.86541889811812	967.2710521763638	1980.025065911966	98.29778730222569	1010.479583440216	2262.56894861067	967.7864468790746	898.3477575027415	2163.637949615482	41.99323143670839	1051.421711587075	2134.200606519691	37.65143322545867	945.6042542205092	2158.24237006341	940.3321017219971	1004.102986758682	2086.668240548561	165.2502834818582	950.9646289096675	2051.379093126115	188.301304058283	979.9903450662513	2118.514641126597	236.2740390526802	927.6438928697432	2086.356016274799	262.877807259939	960.6784203101311	2253.262156941723	543.8589441001687	887.7879764652312	2189.310310365739	542.796313001853	923.4652079443381	2240.783737635905	651.7170100409691	870.9475841818581	2181.1780742669	651.1641778680655	907.5420758444249	2326.90834795346	903.439587677195	1172.606949907686	-7433516208.386446	4912502915.095487	-13822689358.86888	2025.495090217694	493.6905300128406	1096.211044844273	2048.396953692684	469.3093602508795	1134.524062900661	2070.497859423581	493.6322494732449	1093.083555837899	2267.628439206217	962.4637965764732	1197.984900157669	2084.519240425137	306.6404346369214	1049.988763194158	2069.719701315623	326.0531062668884	1155.425298605016	2163.887950293017	938.033721435388	1103.132800316156	2168.084380536424	444.5325544797715	1145.951844860811	2162.180928144771	489.7211368031695	1114.498936940673	2243.522495264684	469.1563495432802	1163.601699331007	2237.494191833553	511.2758485258906	1130.674441242813	2433.218895487661	557.56951458969	1191.268064589405	2385.664570661653	530.7032654979489	1146.218509144417	2364.931061975529	641.6425620716559	1212.222022002909	2316.644217751484	610.8541987670048	1172.983199242003	
1691	11.26666666666667	2327.90013895021	920.895978854685	935.3913037020507	1941.594723868328	59.72237215710282	1009.686531154325	1975.529324909613	72.11850861479127	967.0188010670565	1959.523969274775	104.5867628756042	1009.826966618742	2266.345225525741	970.7962599795732	897.9384532158698	2140.417326381141	41.44777960025323	1051.392189068681	2110.936436237532	37.70166546613098	945.6484614204761	2159.724324194643	944.6652600774064	1002.329012170294	2065.950693080618	170.616001829848	950.8411286449525	2031.150386600636	193.8029753094803	980.3470295012537	2098.387512703218	241.5033938954597	927.877437288079	2066.845520158633	268.1797421106351	961.4143264459824	2241.139312660999	547.5453070161848	889.0083551833311	2177.138173987582	549.3281127301195	924.4510305772739	2233.401338742186	655.6972190993652	871.8914061422685	2173.721256453348	657.8469311691014	908.2257780654083	2327.293874403763	909.8284165990669	1172.272218340378	-7451051170.261145	4924089918.473412	-13855294036.48462	2034.990977798149	475.3935643544042	1096.454814914395	2059.628853260762	453.051827369722	1134.950555149431	2079.852550511807	478.6147429826264	1093.229712811991	2268.354231805688	968.4596332907565	1197.346622618034	2107.145447522569	292.6774750945432	1051.807013655454	2091.177309274998	311.9246889791593	1156.93140541271	2164.488416935419	943.2813986436861	1101.843065530496	2180.677320736422	436.0911998665273	1146.20547339494	2171.698037339431	480.9211271191507	1114.978556156344	2254.301271535941	465.8142940034448	1163.802884148088	2245.36434304702	507.5570051045352	1131.090831008627	2441.726714845648	568.535218239359	1191.03384827481	2394.654563860126	539.9174282693349	1145.786297263472	2370.977181059052	650.4486254168074	1212.262089102177	2323.415897980939	618.3549911878335	1173.015268276081	
1692	11.27333333333333	2329.734912905136	923.1608394520158	935.2836046035782	1920.43355798707	67.73723922105145	1009.26505572938	1954.917802827667	78.21278257132178	966.570103536958	1940.037008076814	111.7990692655015	1008.946717230398	2270.612829090281	974.0584700729599	897.7587567536075	2117.572427651797	40.98252380072444	1051.292152285132	2088.127688326224	37.8838323573394	945.5660711011252	2161.563910169272	949.3214482051424	1000.912370802977	2045.985008276145	176.7854815258003	950.5192083317189	2011.666467266939	199.9738401004245	980.5829265466496	2078.785487117887	247.6422899837252	927.9860480201585	2047.871809086354	274.2600682811702	962.1159194080303	2229.153276481469	552.1498827920899	890.3339726104772	2165.424327605871	556.9096737669267	925.8349697295224	2226.318093659438	660.3338943267328	872.9112034693519	2166.806910340195	665.3003787309992	909.1794678070567	2328.075206084148	916.6401850748343	1171.650026677378	-7468613686.011415	4935695127.557491	-13887949945.31747	2045.515218645032	456.1631122147284	1096.440082843859	2071.711443611086	436.0628569709218	1135.155465621537	2090.017493202309	462.6663779909045	1093.125840979069	2269.457911422709	974.8265396224051	1196.690339209962	2130.647702173049	278.6687738358019	1053.759077819021	2113.402638145583	297.8636959082049	1158.521481236933	2165.413175670421	948.838952379424	1100.722780956035	2193.644263191869	427.3461100785655	1146.3960381516	2181.590224099812	471.4072913110816	1115.121590430462	2265.089441183543	462.202079010455	1163.824220424548	2253.234603082293	503.1603456090805	1131.089959976648	2449.181215500268	579.4578893410003	1190.66153748047	2402.603614405683	549.4903049559928	1145.114004969681	2376.287771814137	659.3756746496878	1212.339886035829	2329.451187651187	626.3005809977285	1172.981082914524	
